<?xml version="1.0" encoding="UTF-8" standalone="no"?>
<!-- Created with Inkscape (http://www.inkscape.org/) -->

<svg
   xmlns:dc="http://purl.org/dc/elements/1.1/"
   xmlns:cc="http://creativecommons.org/ns#"
   xmlns:rdf="http://www.w3.org/1999/02/22-rdf-syntax-ns#"
   xmlns:svg="http://www.w3.org/2000/svg"
   xmlns="http://www.w3.org/2000/svg"
   xmlns:sodipodi="http://sodipodi.sourceforge.net/DTD/sodipodi-0.dtd"
   xmlns:inkscape="http://www.inkscape.org/namespaces/inkscape"
   width="210mm"
   height="210mm"
   viewBox="0 0 210 210"
   version="1.1"
   id="svg831"
   inkscape:version="0.92.3 (2405546, 2018-03-11)"
   sodipodi:docname="drawing.svg">
  <defs
     id="defs825" />
  <sodipodi:namedview
     id="base"
     pagecolor="#ffffff"
     bordercolor="#666666"
     borderopacity="1.0"
     inkscape:pageopacity="0.0"
     inkscape:pageshadow="2"
     inkscape:zoom="0.35"
     inkscape:cx="-95.714286"
     inkscape:cy="560"
     inkscape:document-units="mm"
     inkscape:current-layer="layer1"
     showgrid="false"
     inkscape:window-width="1920"
     inkscape:window-height="1014"
     inkscape:window-x="0"
     inkscape:window-y="0"
     inkscape:window-maximized="1" />
  <metadata
     id="metadata828">
    <rdf:RDF>
      <cc:Work
         rdf:about="">
        <dc:format>image/svg+xml</dc:format>
        <dc:type
           rdf:resource="http://purl.org/dc/dcmitype/StillImage" />
        <dc:title></dc:title>
      </cc:Work>
    </rdf:RDF>
  </metadata>
  <g
     inkscape:label="Layer 1"
     inkscape:groupmode="layer"
     id="layer1"
     transform="translate(0,-87)">
    <path
       d="m 102.72353,90.427824 c -5.612453,0.197021 -11.911516,0.985151 -17.613533,2.203175 -13.081771,2.794287 -25.54261,8.138061 -36.570502,15.696941 -7.648435,5.23631 -14.371453,11.32643 -20.574973,18.63453 -4.860132,5.73189 -9.517305,12.7952 -13.039984,19.76301 -5.928906,11.73838 -9.523293,24.37236 -10.657696,37.46609 -0.29256,3.39732 -0.328412,4.36456 -0.328412,8.89632 0.0066,4.53176 0.03589,5.38557 0.334407,8.83663 1.28963,15.03418 5.928854,29.69226 13.541482,42.78001 5.385568,9.24858 12.383247,17.83444 20.246651,24.83805 4.722801,4.20335 9.314254,7.6425 14.389355,10.77712 6.955846,4.29889 14.019201,7.60067 21.763175,10.18003 7.606645,2.53753 15.547689,4.16754 23.643919,4.86013 3.397321,0.29256 4.472071,0.33434 8.687381,0.33434 4.20933,-0.007 5.52285,-0.0538 8.74703,-0.33434 15.30888,-1.32549 29.93112,-5.95877 43.12035,-13.67289 10.05467,-5.88711 19.03456,-13.43407 26.52183,-22.28861 7.63651,-9.03365 13.61314,-19.2077 17.75087,-30.21763 3.54656,-9.42775 5.70202,-19.45254 6.34682,-29.49524 0.31645,-4.97956 0.26271,-10.389 -0.15522,-15.28494 -1.12248,-13.18927 -4.66312,-25.7277 -10.62782,-37.58552 -3.13463,-6.24535 -7.11707,-12.44293 -11.54137,-17.97177 -5.24824,-6.5618 -11.57717,-12.71161 -18.21657,-17.71506 -6.71703,-5.05715 -13.78038,-9.15901 -21.4348,-12.436949 -10.83082,-4.645206 -22.06767,-7.331983 -33.98517,-8.126096 -1.50461,-0.101482 -2.56142,-0.12537 -5.80947,-0.137331 -2.18528,-0.01196 -4.22729,-0.01196 -4.53775,0 z m 7.34395,37.221306 c 9.76808,0.31046 18.96889,1.64791 26.95766,3.91079 7.4574,2.1196 13.39828,5.08108 16.8314,8.38883 1.82704,1.76137 2.85996,3.45107 3.36748,5.49303 l 0.15524,0.62691 0.0179,5.13479 c 0.0179,3.32571 0,5.3796 -0.0358,5.83337 -0.3523,3.86899 -3.31374,7.51713 -8.75306,10.78309 -6.58564,3.95259 -16.8672,6.94388 -28.5399,8.30522 -4.55565,0.53137 -9.12322,0.78215 -14.35949,0.78215 -3.31374,0 -4.78852,-0.0418 -7.761926,-0.20898 -11.392045,-0.65674 -22.330377,-2.97341 -30.211682,-6.40054 -7.875327,-3.42719 -12.508566,-7.6425 -13.52957,-12.31758 -0.107463,-0.47762 -0.113445,-0.8717 -0.113445,-6.29906 v -5.79157 l 0.161214,-0.63888 c 0.620933,-2.44798 2.352425,-4.74669 5.152695,-6.85433 7.624594,-5.73188 21.733306,-9.60686 38.588579,-10.60398 3.307755,-0.19103 8.526165,-0.25671 12.072725,-0.14326 z m -55.067663,47.11469 c 0.244795,0.0895 0.6329,0.48366 1.110518,1.12848 1.319549,1.77332 2.740576,3.15252 4.669093,4.51983 1.731494,1.22396 3.319723,2.1614 5.373647,3.15847 6.119945,2.9734 13.607209,5.10496 22.539339,6.40655 2.865942,0.41793 6.514032,0.77023 10.598004,1.02101 2.286742,0.13732 6.376642,0.19702 9.147092,0.12542 10.4905,-0.2627 19.86448,-1.65385 28.2115,-4.17945 5.39753,-1.636 10.38303,-3.94066 13.8341,-6.40059 2.04793,-1.45089 3.5645,-2.90174 4.79445,-4.57953 0.23287,-0.31646 0.48959,-0.65679 0.57919,-0.75233 0.23283,-0.25671 0.66273,-0.51347 0.85975,-0.51347 0.26274,0 0.54932,0.31645 0.63289,0.70456 0.0836,0.406 0.0895,17.48815 0.007,18.5509 -0.11346,1.34943 -0.48958,2.79428 -1.06279,4.03026 -2.35842,5.10492 -8.46644,9.76205 -17.2374,13.13548 -9.41579,3.62425 -21.01684,5.55277 -33.39406,5.55277 -6.042342,0 -11.069677,-0.37614 -16.503016,-1.22401 -8.335084,-1.30759 -15.523803,-3.4391 -21.375067,-6.33486 -8.287314,-4.10787 -12.968328,-9.14712 -13.65498,-14.7118 -0.04178,-0.33439 -0.06567,-3.64808 -0.06567,-9.76209 v -9.26054 l 0.13733,-0.26269 c 0.185101,-0.37619 0.441862,-0.48963 0.800095,-0.3523 z m 0.137331,37.6512 c 0.322386,0.20898 0.513472,0.43588 1.032924,1.21204 1.671802,2.49573 3.367447,4.20933 6.167716,6.24535 6.860302,4.97358 17.59563,8.64555 29.734038,10.17404 5.576607,0.69858 9.977014,0.92545 16.043254,0.82398 6.71105,-0.10754 13.39822,-0.87769 19.6555,-2.26291 7.32006,-1.62404 13.72664,-4.01825 18.68829,-6.99763 2.50766,-1.50461 4.3168,-2.88385 6.06619,-4.63329 1.14044,-1.14637 1.84499,-1.98821 2.54356,-3.05099 0.25073,-0.37615 0.55526,-0.82399 0.68661,-0.99114 0.63289,-0.8359 1.30159,-0.82399 1.54639,0.0179 0.11937,0.41199 0.12542,16.10293 0.007,17.00451 -0.64482,4.81241 -3.56451,9.48145 -8.6814,13.85201 -3.40923,2.91968 -8.37687,5.89309 -13.10566,7.85147 -0.4836,0.20301 -0.96127,0.40602 -1.06279,0.4478 -1.40308,0.6329 -5.41539,1.97628 -7.97087,2.66294 -5.55871,1.49264 -10.54424,2.28077 -16.64031,2.6211 -6.16771,0.34034 -13.236997,-0.14327 -19.303232,-1.3195 -2.674856,-0.51946 -6.030385,-1.36727 -8.41866,-2.12558 -7.582807,-2.40019 -14.114742,-5.82738 -19.207746,-10.06658 -1.158289,-0.96725 -3.236099,-3.02711 -4.107806,-4.072 -2.537575,-3.05698 -4.060081,-6.14383 -4.60342,-9.34413 -0.101521,-0.57919 -0.107463,-1.28369 -0.125409,-8.95006 -0.02382,-9.08741 -0.03581,-8.65753 0.31051,-9.03965 0.17912,-0.19104 0.513472,-0.22091 0.746343,-0.0597 z"
       id="path4"
       style="fill:#b1325d;fill-opacity:1;stroke-width:0.00597069"
       inkscape:connector-curvature="0" />
  </g>
</svg>
